<svg xmlns="http://www.w3.org/2000/svg" width="26" height="26" viewBox="0 0 26 26"><defs><style>.a{fill:#505050;}.b,.c,.e{fill:none;}.b,.c{stroke:#505050;}.c{stroke-width:2px;}.d{stroke:none;}</style></defs><g transform="translate(-1472 -658)"><rect class="a" width="4" height="4" rx="1" transform="translate(1487 673)"/><rect class="a" width="4" height="4" rx="1" transform="translate(1493 679)"/><g class="b" transform="translate(1493 674)"><rect class="d" width="3" height="3" rx="1"/><rect class="e" x="0.5" y="0.5" width="2" height="2" rx="0.5"/></g><g class="b" transform="translate(1488 679)"><rect class="d" width="3" height="3" rx="1"/><rect class="e" x="0.5" y="0.5" width="2" height="2" rx="0.5"/></g><g class="c" transform="translate(1472 672)"><rect class="d" width="12" height="12" rx="2"/><rect class="e" x="1" y="1" width="10" height="10" rx="1"/></g><rect class="a" width="2" height="2" rx="1" transform="translate(1477 677)"/><g class="c" transform="translate(1472 658)"><rect class="d" width="12" height="12" rx="2"/><rect class="e" x="1" y="1" width="10" height="10" rx="1"/></g><rect class="a" width="2" height="2" rx="1" transform="translate(1477 663)"/><g class="c" transform="translate(1486 658)"><rect class="d" width="12" height="12" rx="2"/><rect class="e" x="1" y="1" width="10" height="10" rx="1"/></g><rect class="a" width="2" height="2" rx="1" transform="translate(1491 663)"/></g></svg>